<svg width="1020" height="1020" viewBox="0 0 1020 1020" fill="none" xmlns="http://www.w3.org/2000/svg">
<path d="M888.348 728.439L869.348 739.409L529 935.909L510 946.879L491 935.909L150.652 739.409L131.652 728.439V291.561L150.652 280.591L491 84.0908L510 73.1211L529 84.0908L869.348 280.591L888.348 291.561V728.439Z" fill="#F1F6F8" stroke="#101D23" stroke-width="76"/>
<path d="M510 200.974L777.624 355.487V664.513L510 819.026L242.376 664.513V355.487L510 200.974Z" fill="#101D23"/>
<path d="M403.607 410.401L507.322 468.647L611.037 410.401L552.792 514.116L611.037 617.831L507.322 559.586L403.607 617.831L461.853 514.116L403.607 410.401Z" fill="#A48328" stroke="#A48328" stroke-width="16"/>
<path d="M515.31 520.38L611.038 617.831L507.323 560.036L515.31 520.38Z" fill="#A48328" stroke="#A48328" stroke-width="16"/>
<path d="M499.476 523.687L402.024 619.415L459.819 515.7L499.476 523.687Z" fill="#A48328" stroke="#A48328" stroke-width="16"/>
<path d="M513.656 506.199L611.108 410.472L553.313 514.187L513.656 506.199Z" fill="#A48328" stroke="#A48328" stroke-width="16"/>
<path d="M497.822 506.199L402.095 408.747L505.81 466.543L497.822 506.199Z" fill="#A48328" stroke="#A48328" stroke-width="16"/>
<path d="M508.32 291.667L556.548 463.452L728.333 511.68L556.548 559.907L508.32 731.692L460.093 559.907L288.308 511.68L460.093 463.452L508.32 291.667Z" fill="#A48328" stroke="#A48328" stroke-width="16"/>
<path d="M510.149 526.795L508.32 731.692L459.615 560.385L510.149 526.795Z" fill="#A48328" stroke="#A48328" stroke-width="16"/>
<path d="M489.846 513.508L284.948 511.679L456.256 462.974L489.846 513.508Z" fill="#A48328" stroke="#A48328" stroke-width="16"/>
<path d="M523.436 510L728.333 511.829L557.026 560.534L523.436 510Z" fill="#A48328" stroke="#A48328" stroke-width="16"/>
<path d="M506.641 493.205L508.47 288.308L557.175 459.615L506.641 493.205Z" fill="#A48328" stroke="#A48328" stroke-width="16"/>
<circle cx="510" cy="510" r="70.5385" fill="#A48328" stroke="#101D23" stroke-width="32"/>
</svg>
