<svg viewBox="0 0 720 759" fill="none" xmlns="http://www.w3.org/2000/svg">
<path d="M254.367 609.874L267.008 575L365.166 629.908L467.043 575L477.453 609.874L519.84 667.75L595.689 698.913L646.255 710.785L676 736.755L504.967 706.333L438.041 667.75L492.326 719.689L552.559 749.369L504.967 752.337L464.068 739.723L385.244 693.719L424.656 756.047L385.244 749.369L327.242 693.719L300.471 727.109L247.674 759L217.93 752.337L267.008 716.706L281.137 667.75L229.084 693.719L64 750.838L81.8469 722.87L197.108 667.75L254.367 609.874Z" fill="#101D23"/>
<path d="M264.5 534.5L295.5 563.5L317 552L287 526L197.5 498.5L131.5 460L57.5 401L54.5 406.5L109 455L47 451V458L116.5 462L174.5 498.5L94 514.5L95.5 521.442L185 506.942L222.5 518L150.5 564.5L154.5 569.5L236 526L264.5 534.5Z" fill="#101D23"/>
<path d="M285.5 505L315 547.5L369 518.5L432.5 555.5L489.5 526.5L573 559.5L577.5 548.5L501.5 518.5L524 505L636.5 515.5L639 505L534 495L622.5 448.5L684 456.5V448.5L634 440L687.5 384L684 375.5L631 430L586.5 451.5L634 371L618.5 375.5L566 463.5L501.5 505L419 537L409 532.5L432.5 495L481 468.5L513.5 448.5L546.5 447.833L549 439.333L524 436L560.5 409L594.5 355L646 334L684 293.5L674.5 284.5L642 320L604.5 339L624 275.5L616 270.5L589 346L560.5 384V330.5H551.5V398.5L478.5 459L450.5 472L497.5 416.5L528 313.5L573 268.5L586.5 236L613.5 201.5L607 191L577.5 230.5L566 261.5L517.5 305L486.5 409L427.5 476L391.5 512.5V472L441.5 394L475.5 355L495 290.5L534 245.5L545.5 191L560.5 155.5L554 148.5L534 191L524 242L495 273.5L493 232.5L486.5 236V284.5L481 290.5L468 349.5L441.5 378.5V339H432.5V387.5L377 451.5V378.5L404.5 313.5L436.5 277.5L452.5 213L489.5 175L505.5 105.5H496L481 168.5L450.5 198.5V155.5L441.5 161V212.5L427.5 268.5L406.5 297V256H399.5L398.5 305L371.5 355V225.5L441.5 130V71H432V126L402.5 165.569V114.569L395.719 116.5V175L371.5 209V47.5H360V326L340.5 299.5L338.5 126H330.5V162.5L303.5 132.957V67.9565L294.5 66V137L330.5 179V287.5L303.5 259.3V223.3L299 220V254L272 220L275 123.5L269 114L263.5 161L244 123.5L235 89L224.5 92L232.5 123.5L263.5 177.5V225.5L362 346L357 430L346 416.5L326 378.5L296 349.5L291.5 320H285.5L288.5 346L255.5 320L244 261.5V212.5L235 207.5V246.5L204.5 220V165L171 130L163 137.5L192.5 168.5L196 225.5L232.5 261.5L249.5 329.5L311.5 378.5L326 409L351 459L346 495L311.5 440L281.5 412.326L271 366.826L263.5 359L269 405L218.5 356.5V302H211.5V347.5L196 332.5L168 254L165.5 207.5H160V246.5L126.5 212.5L107.5 187.5L102.5 192L117 212.5L163 270.5L186.5 337.5L275 422L320.5 491.5L331.5 525.5L311.5 505L255.5 470L246.5 438L240.5 440L244 461.5L227.5 451.5L186.5 386L163 365.5L142.5 308L137 310.5L152 355.929L117 329.5L74 256.5L68 264L107.5 332.5L163 378.5L95.5 359L47.5 324L41 329.5L89 365.5L180.5 394.5L211.5 445.5L171 434L133.5 405H121.5L163 443.5L218.5 459L285.5 505Z" fill="#101D23"/>
<g id="leaves">
<circle cx="140" cy="575" r="16" fill="#101D23"/>
<circle cx="242" cy="430" r="12" fill="#101D23"/>
<circle cx="136" cy="300" r="12" fill="#101D23"/>
<circle cx="287" cy="309" r="12" fill="#101D23"/>
<circle cx="214" cy="294" r="9" fill="#A48328"/>
<circle cx="303" cy="215" r="9" fill="#101D23"/>
<circle cx="404" cy="249" r="9" fill="#101D23"/>
<circle cx="333" cy="119" r="9" fill="#A48328"/>
<circle cx="238" cy="200" r="12" fill="#101D23"/>
<circle cx="398" cy="105" r="12" fill="#101D23"/>
<circle cx="490" cy="224" r="12" fill="#A48328"/>
<circle cx="556" cy="321" r="12" fill="#101D23"/>
<circle cx="437" cy="330" r="12" fill="#101D23"/>
<circle cx="163" cy="197" r="12" fill="#101D23"/>
<circle cx="79" cy="522" r="14" fill="#F1F6F8" stroke="#101D23" stroke-width="8"/>
<circle cx="43" cy="397" r="14" fill="#F1F6F8" stroke="#101D23" stroke-width="8"/>
<circle cx="61" cy="248" r="14" fill="#F1F6F8" stroke="#101D23" stroke-width="8"/>
<circle cx="300" cy="50" r="14" fill="#F1F6F8" stroke="#101D23" stroke-width="8"/>
<circle cx="435" cy="54" r="14" fill="#F1F6F8" stroke="#101D23" stroke-width="8"/>
<circle cx="565" cy="138" r="14" fill="#F1F6F8" stroke="#101D23" stroke-width="8"/>
<circle cx="628" cy="259" r="14" fill="#F1F6F8" stroke="#101D23" stroke-width="8"/>
<circle cx="699" cy="455" r="14" fill="#F1F6F8" stroke="#101D23" stroke-width="8"/>
<circle cx="652" cy="517" r="14" fill="#F1F6F8" stroke="#101D23" stroke-width="8"/>
<circle cx="691" cy="273" r="17" fill="#F1F6F8" stroke="#101D23" stroke-width="8"/>
<circle cx="27" cy="454" r="21" fill="#101D23"/>
<circle cx="699" cy="369" r="21" fill="#101D23"/>
<circle cx="593" cy="563" r="21" fill="#101D23"/>
<circle cx="25" cy="313" r="25" fill="#101D23"/>
<circle cx="90" cy="172" r="25" fill="#101D23"/>
<circle cx="220" cy="68" r="25" fill="#101D23"/>
<circle cx="367" cy="25" r="25" fill="#101D23"/>
<circle cx="509" cy="85" r="25" fill="#101D23"/>
<circle cx="627" cy="181" r="25" fill="#101D23"/>
<circle cx="158" cy="123" r="16" fill="#101D23"/>
</g>
<path d="M546.062 314.618V521.381L366.999 624.763L187.938 521.381V314.618L367 211.236L546.062 314.618Z" fill="#F1F6F8" stroke="#101D23" stroke-width="16"/>
<path d="M367 248.154L514.091 333.077V502.923L367 587.846L219.909 502.923V333.077L367 248.154Z" fill="#101D23"/>
<g id="compass">
<path d="M308.525 363.259L365.528 395.272L422.532 363.259L390.519 420.262L422.532 477.266L365.528 445.253L308.525 477.266L340.538 420.262L308.525 363.259Z" fill="#DCBF70" stroke="#A48328" stroke-width="8"/>
<path d="M369.919 423.705L422.532 477.266L365.529 445.501L369.919 423.705Z" fill="#101D23"/>
<path d="M361.216 425.523L307.654 478.136L339.42 421.133L361.216 425.523Z" fill="#101D23"/>
<path d="M369.01 415.911L422.571 363.297L390.805 420.301L369.01 415.911Z" fill="#101D23"/>
<path d="M360.307 415.911L307.693 362.35L364.697 394.115L360.307 415.911Z" fill="#101D23"/>
<path d="M366.077 298L392.584 392.416L487 418.923L392.584 445.43L366.077 539.846L339.57 445.43L245.154 418.923L339.57 392.416L366.077 298Z" fill="#DCBF70" stroke="#A48328" stroke-width="8"/>
<path d="M367.082 427.231L366.077 539.846L339.308 445.692L367.082 427.231Z" fill="#101D23"/>
<path d="M355.923 419.928L243.307 418.923L337.461 392.154L355.923 419.928Z" fill="#101D23"/>
<path d="M374.385 418L487 419.005L392.846 445.774L374.385 418Z" fill="#101D23"/>
<path d="M365.154 408.769L366.159 296.154L392.928 390.308L365.154 408.769Z" fill="#101D23"/>
</g>
<circle cx="367" cy="418" r="36.2692" fill="#A48328" stroke="#101D23" stroke-width="5"/>
</svg>
